<svg width="16" height="16" viewBox="0 0 16 16" fill="none" xmlns="http://www.w3.org/2000/svg">
<path d="M8.00345 15.5034C6.96595 15.5034 5.99095 15.3064 5.07845 14.9124C4.16595 14.5189 3.3722 13.9847 2.6972 13.3097C2.0222 12.6347 1.48795 11.8409 1.09445 10.9284C0.700449 10.0159 0.503448 9.04092 0.503448 8.00342C0.503448 6.96592 0.700449 5.99092 1.09445 5.07842C1.48795 4.16592 2.0222 3.37217 2.6972 2.69717C3.3722 2.02217 4.16595 1.48767 5.07845 1.09367C5.99095 0.700168 6.96595 0.503418 8.00345 0.503418C9.04095 0.503418 10.0159 0.700168 10.9284 1.09367C11.8409 1.48767 12.6347 2.02217 13.3097 2.69717C13.9847 3.37217 14.5189 4.16592 14.9124 5.07842C15.3064 5.99092 15.5034 6.96592 15.5034 8.00342C15.5034 9.04092 15.3064 10.0159 14.9124 10.9284C14.5189 11.8409 13.9847 12.6347 13.3097 13.3097C12.6347 13.9847 11.8409 14.5189 10.9284 14.9124C10.0159 15.3064 9.04095 15.5034 8.00345 15.5034ZM8.00345 14.0034C9.67845 14.0034 11.0972 13.4222 12.2597 12.2597C13.4222 11.0972 14.0034 9.67842 14.0034 8.00342C14.0034 7.32842 13.8939 6.67842 13.6749 6.05342C13.4564 5.42842 13.1409 4.85342 12.7284 4.32842L4.32845 12.7284C4.85345 13.1409 5.42845 13.4564 6.05345 13.6749C6.67845 13.8939 7.32845 14.0034 8.00345 14.0034ZM3.27845 11.6784L11.6784 3.27842C11.1534 2.86592 10.5784 2.55042 9.95345 2.33192C9.32845 2.11292 8.67845 2.00342 8.00345 2.00342C6.32845 2.00342 4.9097 2.58467 3.7472 3.74717C2.5847 4.90967 2.00345 6.32842 2.00345 8.00342C2.00345 8.67842 2.11295 9.32842 2.33195 9.95342C2.55045 10.5784 2.86595 11.1534 3.27845 11.6784Z" fill="#005BAA"/>
</svg>
