<svg width="14" height="14" viewBox="0 0 14 14" fill="none" xmlns="http://www.w3.org/2000/svg">
<path d="M0 4.625V0.75C0 0.334375 0.334375 0 0.75 0H4.625C4.83125 0 5 0.16875 5 0.375V1.625C5 1.83125 4.83125 2 4.625 2H2V4.625C2 4.83125 1.83125 5 1.625 5H0.375C0.16875 5 0 4.83125 0 4.625ZM9 0.375V1.625C9 1.83125 9.16875 2 9.375 2H12V4.625C12 4.83125 12.1687 5 12.375 5H13.625C13.8313 5 14 4.83125 14 4.625V0.75C14 0.334375 13.6656 0 13.25 0H9.375C9.16875 0 9 0.16875 9 0.375ZM13.625 9H12.375C12.1687 9 12 9.16875 12 9.375V12H9.375C9.16875 12 9 12.1687 9 12.375V13.625C9 13.8313 9.16875 14 9.375 14H13.25C13.6656 14 14 13.6656 14 13.25V9.375C14 9.16875 13.8313 9 13.625 9ZM5 13.625V12.375C5 12.1687 4.83125 12 4.625 12H2V9.375C2 9.16875 1.83125 9 1.625 9H0.375C0.16875 9 0 9.16875 0 9.375V13.25C0 13.6656 0.334375 14 0.75 14H4.625C4.83125 14 5 13.8313 5 13.625Z" fill="#828282"/>
</svg>
